<svg xmlns="http://www.w3.org/2000/svg" width="35" height="60" viewBox="0 0 35 60">
    <g fill="none" fill-rule="evenodd">
        <path fill="#FFF" d="M1.192 11.532c-3.113 8.826 1.518 18.493 10.341 21.604 8.822 3.109 18.495-1.516 21.603-10.34 3.108-8.824-1.52-18.493-10.34-21.604a16.92 16.92 0 0 0-5.632-.969c-6.981.001-13.517 4.35-15.972 11.31z"/>
        <path stroke="#333" stroke-width=".216" d="M1.192 11.532c-3.113 8.826 1.518 18.493 10.341 21.604 8.822 3.109 18.495-1.516 21.603-10.34 3.108-8.824-1.52-18.493-10.34-21.604a16.92 16.92 0 0 0-5.632-.969c-6.981.001-13.517 4.35-15.972 11.31z"/>
        <path fill="#FFF" d="M.226 44.88l.006 1.709c.013 3.256 7.602 5.867 16.955 5.837 9.358-.036 16.926-2.704 16.915-5.959l-.003-1.715-33.873.128z"/>
        <path stroke="#333" stroke-width=".216" d="M.226 44.88l.006 1.709c.013 3.256 7.602 5.867 16.955 5.837 9.358-.036 16.926-2.704 16.915-5.959l-.003-1.715-33.873.128z"/>
        <path fill="#FFF" d="M17.145 38.919c-9.356.034-16.93 2.7-16.919 5.96.01 3.252 7.603 5.861 16.958 5.83 9.351-.032 16.924-2.7 16.915-5.957-.013-3.236-7.516-5.834-16.79-5.834h-.164z"/>
        <path stroke="#333" stroke-width=".216" d="M17.145 38.919c-9.356.034-16.93 2.7-16.919 5.96.01 3.252 7.603 5.861 16.958 5.83 9.351-.032 16.924-2.7 16.915-5.957-.013-3.236-7.516-5.834-16.79-5.834h-.164z"/>
        <path fill="#FFF" d="M34.102 58.865v-1.018c0-.478-7.582-.95-16.935-.95-9.355 0-16.938.472-16.938.95v1.018c0 .472 7.583.945 16.938.945 9.353 0 16.935-.473 16.935-.945z"/>
        <path stroke="#333" stroke-width=".216" d="M34.102 58.865v-1.018c0-.478-7.582-.95-16.935-.95-9.355 0-16.938.472-16.938.95v1.018c0 .472 7.583.945 16.938.945 9.353 0 16.935-.473 16.935-.945z"/>
    </g>
</svg>
