<svg xmlns="http://www.w3.org/2000/svg" width="109" height="39" viewBox="0 0 109 39">
    <g fill="none" fill-rule="evenodd">
        <path fill="#FFF" d="M28.022 15.558H2.173L.308 20.683h25.848l1.866-5.125zM33.602.216H7.754L5.9 5.311h25.848L33.602.216zm-2.787 7.657H4.966l-1.864 5.124H28.95l1.865-5.124z"/>
        <path stroke="#333" stroke-width=".216" d="M28.022 15.558H2.173L.308 20.683h25.848l1.866-5.125zM33.602.216H7.754L5.9 5.311h25.848L33.602.216zm-2.787 7.657H4.966l-1.864 5.124H28.95l1.865-5.124z"/>
        <path fill="#FFF" d="M54.771 22.234v.106c1.17.426 2.287 1.17 2.872 1.649 1.809 1.489 2.606 3.457 2.606 6.01 0 4.202-2.233 7.234-5.903 8.191-1.118.32-2.288.426-4.469.426H38.762V7.873h9.84c2.02 0 3.404.106 4.626.426 3.564.957 5.904 3.404 5.904 7.286 0 2.074-.744 3.83-1.968 5-.532.532-1.276 1.17-2.393 1.649zm-9.84 3.244v8.085h4.255c1.277 0 2.447-.106 3.298-.904.85-.799 1.223-1.809 1.223-3.138 0-1.011-.266-1.969-.797-2.66-.904-1.117-2.021-1.383-3.936-1.383H44.93zm-.053-5.319h3.457c1.064 0 1.596 0 2.128-.159 1.436-.426 2.34-1.702 2.34-3.457 0-2.075-.957-2.98-2.34-3.404-.586-.16-1.17-.213-2.34-.213h-3.245v7.233zm24.626 18.457V13.032h-8.882V7.873H85.3l-1.755 5.159h-7.872v25.584h-6.17zm17.712 0V7.873h20l-1.756 5.159H93.333v6.808h4.946c3.99 0 6.064.957 7.5 2.18 1.117.958 3.032 3.085 3.032 7.288 0 4.149-1.969 6.436-3.617 7.605-1.915 1.33-3.936 1.703-8.031 1.703h-9.947zm6.117-5.16h4.627c1.755 0 2.82-.425 3.564-1.383.372-.478.904-1.329.904-2.925 0-1.596-.532-2.712-1.596-3.51-.637-.479-1.488-.745-2.925-.745h-4.574v8.564z"/>
        <path stroke="#333" stroke-width=".216" d="M54.771 22.234v.106c1.17.426 2.287 1.17 2.872 1.649 1.809 1.489 2.606 3.457 2.606 6.01 0 4.202-2.233 7.234-5.903 8.191-1.118.32-2.288.426-4.469.426H38.762V7.873h9.84c2.02 0 3.404.106 4.626.426 3.564.957 5.904 3.404 5.904 7.286 0 2.074-.744 3.83-1.968 5-.532.532-1.276 1.17-2.393 1.649zm-9.84 3.244v8.085h4.255c1.277 0 2.447-.106 3.298-.904.85-.799 1.223-1.809 1.223-3.138 0-1.011-.266-1.969-.797-2.66-.904-1.117-2.021-1.383-3.936-1.383H44.93zm-.053-5.319h3.457c1.064 0 1.596 0 2.128-.159 1.436-.426 2.34-1.702 2.34-3.457 0-2.075-.957-2.98-2.34-3.404-.586-.16-1.17-.213-2.34-.213h-3.245v7.233zm24.626 18.457V13.032h-8.882V7.873H85.3l-1.755 5.159h-7.872v25.584h-6.17zm17.712 0V7.873h20l-1.756 5.159H93.333v6.808h4.946c3.99 0 6.064.957 7.5 2.18 1.117.958 3.032 3.085 3.032 7.288 0 4.149-1.969 6.436-3.617 7.605-1.915 1.33-3.936 1.703-8.031 1.703h-9.947zm6.117-5.16h4.627c1.755 0 2.82-.425 3.564-1.383.372-.478.904-1.329.904-2.925 0-1.596-.532-2.712-1.596-3.51-.637-.479-1.488-.745-2.925-.745h-4.574v8.564z"/>
    </g>
</svg>
