<svg xmlns="http://www.w3.org/2000/svg" width="60" height="60" viewBox="0 0 60 60">
    <g fill="none" fill-rule="evenodd">
        <path fill="#FFF" d="M50.193 31.51c0 7.25-3.77 13.753-9.85 16.972l-1.393.659c-.458.21-.963.331-1.453.331-.946 0-1.698-.4-2.149-1.136-.358-.607-.458-1.261-.316-2.01.21-1.038 1.02-1.56 1.259-1.69 3.584-1.628 5.89-5.284 5.89-9.33V24.732c0-4.047-2.298-7.698-5.843-9.308-.009-.008-1.067-.513-1.306-1.717-.142-.75-.042-1.406.316-2.008.45-.725 1.203-1.137 2.15-1.137.489 0 .994.11 1.452.327 0 0 1.31.622 1.364.642 6.105 3.238 9.88 9.745 9.88 16.99v2.99zM23.746 44.636c.24.13 1.053.652 1.265 1.69.142.749.046 1.403-.32 2.01-.447.735-1.199 1.136-2.15 1.136-.485 0-.985-.12-1.452-.331l-1.393-.66c-6.08-3.218-9.851-9.722-9.851-16.97v-2.99c0-7.245 3.784-13.752 9.878-16.99.059-.02 1.366-.642 1.366-.642a3.464 3.464 0 0 1 1.449-.327c.947 0 1.706.412 2.154 1.137.365.602.46 1.257.319 2.008-.24 1.204-1.295 1.709-1.307 1.717-3.546 1.61-5.838 5.261-5.838 9.308v10.574c0 4.046 2.296 7.702 5.88 9.33zM30.019.223C13.565.223.223 13.564.223 30.015.223 46.47 13.565 59.81 30.02 59.81c16.453 0 29.798-13.34 29.798-29.795 0-16.45-13.345-29.792-29.798-29.792z"/>
        <path stroke="#4D4D4D" stroke-width=".216" d="M50.193 31.51c0 7.25-3.77 13.753-9.85 16.972l-1.393.659c-.458.21-.963.331-1.453.331-.946 0-1.698-.4-2.149-1.136-.358-.607-.458-1.261-.316-2.01.21-1.038 1.02-1.56 1.259-1.69 3.584-1.628 5.89-5.284 5.89-9.33V24.732c0-4.047-2.298-7.698-5.843-9.308-.009-.008-1.067-.513-1.306-1.717-.142-.75-.042-1.406.316-2.008.45-.725 1.203-1.137 2.15-1.137.489 0 .994.11 1.452.327 0 0 1.31.622 1.364.642 6.105 3.238 9.88 9.745 9.88 16.99v2.99zM23.746 44.636c.24.13 1.053.652 1.265 1.69.142.749.046 1.403-.32 2.01-.447.735-1.199 1.136-2.15 1.136-.485 0-.985-.12-1.452-.331l-1.393-.66c-6.08-3.218-9.851-9.722-9.851-16.97v-2.99c0-7.245 3.784-13.752 9.878-16.99.059-.02 1.366-.642 1.366-.642a3.464 3.464 0 0 1 1.449-.327c.947 0 1.706.412 2.154 1.137.365.602.46 1.257.319 2.008-.24 1.204-1.295 1.709-1.307 1.717-3.546 1.61-5.838 5.261-5.838 9.308v10.574c0 4.046 2.296 7.702 5.88 9.33zM30.019.223C13.565.223.223 13.564.223 30.015.223 46.47 13.565 59.81 30.02 59.81c16.453 0 29.798-13.34 29.798-29.795 0-16.45-13.345-29.792-29.798-29.792z"/>
    </g>
</svg>
