<svg xmlns="http://www.w3.org/2000/svg" width="60" height="60" viewBox="0 0 60 60">
    <g fill="none" fill-rule="evenodd">
        <path fill="#FFF" d="M30.017.223c16.454 0 29.792 13.34 29.792 29.794S46.471 59.81 30.017 59.81C13.562 59.81.223 46.47.223 30.017.223 13.562 13.563.223 30.017.223zM15.12 30.017L30.017 15.12l14.896 14.897-14.896 14.897L15.12 30.017z"/>
        <path stroke="#4D4D4D" stroke-width=".216" d="M30.017.223c16.454 0 29.792 13.34 29.792 29.794S46.471 59.81 30.017 59.81C13.562 59.81.223 46.47.223 30.017.223 13.562 13.563.223 30.017.223zM15.12 30.017L30.017 15.12l14.896 14.897-14.896 14.897L15.12 30.017z"/>
    </g>
</svg>
