<svg xmlns="http://www.w3.org/2000/svg" width="295" height="117" viewBox="0 0 295 117">
    <g fill="#ffffff" fill-rule="evenodd">
        <path d="M103.057 35.042h13.14l5.476-25.186h6.57l-5.475 25.186h13.14l3.286-12.046h8.76l-3.285 12.046h14.236L166.57 0h-14.235l-2.19 12.046h-8.761L143.574 0H97.582l-1.095 9.856h10.95zM195.042 35.042l2.19-7.666H179.71l1.095-5.475h15.33l2.191-7.665h-16.426l1.095-5.476h17.521L201.612 0h-29.566l-7.666 35.042z"/>
        <path fill-rule="nonzero" d="M117.293 56.943l2.19 25.186h-14.236l13.14-25.186h-1.094zm63.513 0l2.19 25.186H168.76l13.141-25.186h-1.095zm-101.84 59.133h8.76l8.76-16.426h24.092l1.095 16.426h29.567L160 99.65h24.091l1.095 16.426h28.472l-10.95-74.464h-39.423l-19.71 35.042-5.476-35.042H98.677L75.68 82.13l-1.095-40.517v4.38-4.38H47.209L25.308 88.7l1.095-47.088H.122l2.19 74.464h30.661l21.902-49.278 1.095 49.278H78.966z"/>
        <path d="M246.51 72.274l-5.476-30.662h-30.661l16.425 51.468-4.38 22.996h28.472l4.38-22.996 39.422-51.468h-29.567z"/>
    </g>
</svg>
